# xmcd
#
# Track frame offsets:
#	150
#	16252
#	37375
#	50679
#	73973
#	90965
#	124653
#	140775
#	150395
#	167151
#	185493
#	204807
#	228139
#	250371
#	281552
#	314255
#
# Disc length: 4511 seconds
#
# Revision: 0
# Processed by: cddbd v1.5.1PL2 Copyright (c) Steve Scherf et al.
# Submitted via: dBpowerAMP V4.0
#
DISCID=e0119d10
DTITLE=The Allman Brothers Band - A Decade Of Hits 1969 - 1979
DYEAR=1900
DGENRE=R&B
TTITLE0=Statesboro Blues
TTITLE1=Ramblin Man
TTITLE2=Midnight Rider
TTITLE3=Southbound
TTITLE4=Melissa
TTITLE5=Jessica
TTITLE6=Ain't Wastin Time No More
TTITLE7=Little Martha
TTITLE8=Crazy Love
TTITLE9=Revival
TTITLE10=Wasted Words
TTITLE11=Blue Sky
TTITLE12=One Way Out
TTITLE13=In Memory Of Elizabeth Reed
TTITLE14=Dreams
TTITLE15=Whipping Post
EXTD=
EXTT0=
EXTT1=
EXTT2=
EXTT3=
EXTT4=
EXTT5=
EXTT6=
EXTT7=
EXTT8=
EXTT9=
EXTT10=
EXTT11=
EXTT12=
EXTT13=
EXTT14=
EXTT15=
PLAYORDER=
